M48
; DRILL file {KiCad 7.0.5} date Wed Jul 19 21:52:14 2023
; FORMAT={-:-/ absolute / metric / decimal}
; #@! TF.CreationDate,2023-07-19T21:52:14+09:00
; #@! TF.GenerationSoftware,Kicad,Pcbnew,7.0.5
; #@! TF.FileFunction,MixedPlating,1,2
FMAT,2
METRIC
; #@! TA.AperFunction,Plated,PTH,ViaDrill
T1C0.300
; #@! TA.AperFunction,Plated,PTH,ViaDrill
T2C0.500
; #@! TA.AperFunction,Plated,PTH,ViaDrill
T3C0.800
; #@! TA.AperFunction,Plated,PTH,ComponentDrill
T4C1.000
; #@! TA.AperFunction,NonPlated,NPTH,ComponentDrill
T5C2.500
%
G90
G05
T1
X1.0Y58.0
X1.0Y53.0
X1.0Y47.0
X1.61Y2.39
X2.021Y39.18
X2.07Y21.5
X3.0Y1.0
X4.66Y36.79
X5.0Y59.0
X5.49Y25.36
X5.546Y8.536
X5.58Y52.63
X5.62Y38.78
X5.64Y7.69
X5.83Y31.34
X5.941Y35.52
X6.08Y9.28
X6.491Y32.136
X7.0Y61.0
X7.0Y55.0
X7.38Y32.6
X7.87Y26.66
X8.16Y33.13
X9.0Y32.51
X9.06Y52.04
X9.15Y50.75
X9.45Y53.35
X10.36Y10.09
X10.47Y12.48
X10.54Y13.29
X10.67Y14.09
X10.9Y11.68
X10.92Y14.81
X10.99Y19.12
X11.14Y27.55
X11.22Y49.5
X11.61Y7.1
X11.761Y51.569
X12.53Y14.57
X12.6Y32.55
X12.611Y44.4
X12.611Y37.36
X12.611Y35.35
X12.684Y29.366
X12.71Y39.13
X12.96Y22.05
X12.96Y19.71
X12.99Y27.43
X13.17Y46.93
X13.17Y43.71
X13.23Y48.741
X13.317Y41.16
X13.45Y14.55
X13.49Y55.93
X13.85Y44.4
X13.85Y53.35
X14.18Y2.3
X14.2Y8.47
X14.39Y41.86
X14.39Y50.06
X14.69Y36.17
X14.776Y14.778
X14.779Y37.45
X14.839Y20.87
X15.04Y27.75
X15.3Y12.8
X15.32Y43.13
X15.37Y22.09
X15.56Y2.31
X15.599Y37.178
X15.86Y31.89
X15.87Y45.67
X15.87Y41.17
X15.87Y39.32
X15.979Y14.628
X16.736Y14.621
X16.77Y47.54
X16.77Y45.67
X17.38Y32.575
X17.381Y40.59
X17.39Y46.94
X17.44Y2.29
X17.494Y14.621
X17.83Y19.79
X17.95Y46.361
X17.95Y12.72
X17.99Y11.14
X18.0Y60.0
X18.0Y10.37
X18.01Y9.61
X18.024Y11.926
X18.26Y14.621
X18.51Y43.709
X18.94Y42.41
X18.94Y33.075
X19.83Y31.35
X19.83Y28.39
X20.0Y19.0
X20.39Y29.8
X20.39Y21.37
X20.88Y30.84
X21.0Y61.0
X21.0Y2.0
X21.58Y54.92
X22.0Y58.0
X22.23Y40.59
X26.0Y20.86
X26.0Y2.0
X26.02Y8.74
X26.08Y17.83
X26.24Y51.88
X26.24Y22.86
X26.35Y41.78
X26.62Y12.9
X27.0Y58.0
X27.0Y50.0
X27.0Y44.0
T2
X27.0Y11.0
T3
X10.23Y55.03
X10.23Y29.68
X11.7Y10.93
X16.0Y58.0
X16.16Y52.93
T4
X3.79Y53.34
X3.79Y50.8
X3.79Y48.26
X3.79Y45.72
X3.79Y43.18
X3.79Y40.64
X3.79Y38.1
X3.79Y35.56
X3.79Y33.02
X3.79Y30.48
X3.79Y27.94
X3.79Y25.4
X3.79Y22.86
X3.79Y20.32
X3.79Y17.78
X3.79Y15.24
X3.79Y12.7
X3.79Y10.16
X3.79Y7.62
X3.79Y5.08
X7.69Y24.95
X10.23Y24.95
X12.77Y24.95
X15.31Y24.95
X17.85Y24.95
X20.39Y24.95
X24.11Y53.34
X24.11Y50.8
X24.11Y48.26
X24.11Y45.72
X24.11Y43.18
X24.11Y40.64
X24.11Y38.1
X24.11Y35.56
X24.11Y33.02
X24.11Y30.48
X24.11Y27.94
X24.11Y25.4
X24.11Y22.86
X24.11Y20.32
X24.11Y17.78
X24.11Y15.24
X24.11Y12.7
X24.11Y10.16
X24.11Y7.62
X24.11Y5.08
T5
X4.15Y61.89
X23.95Y61.89
T0
M30
