%TF.GenerationSoftware,KiCad,Pcbnew,7.0.5*%
%TF.CreationDate,2023-07-19T21:52:06+09:00*%
%TF.ProjectId,MEZ80SPI_NOEX,4d455a38-3053-4504-995f-4e4f45582e6b,2.0*%
%TF.SameCoordinates,PX6e3c370PY76b1be0*%
%TF.FileFunction,Copper,L2,Bot*%
%TF.FilePolarity,Positive*%
%FSLAX46Y46*%
G04 Gerber Fmt 4.6, Leading zero omitted, Abs format (unit mm)*
G04 Created by KiCad (PCBNEW 7.0.5) date 2023-07-19 21:52:06*
%MOMM*%
%LPD*%
G01*
G04 APERTURE LIST*
%TA.AperFunction,ComponentPad*%
%ADD10R,1.700000X1.700000*%
%TD*%
%TA.AperFunction,ComponentPad*%
%ADD11O,1.700000X1.700000*%
%TD*%
%TA.AperFunction,ViaPad*%
%ADD12C,1.200000*%
%TD*%
%TA.AperFunction,ViaPad*%
%ADD13C,0.605000*%
%TD*%
%TA.AperFunction,ViaPad*%
%ADD14C,0.900000*%
%TD*%
%TA.AperFunction,Conductor*%
%ADD15C,0.600000*%
%TD*%
%TA.AperFunction,Conductor*%
%ADD16C,0.152400*%
%TD*%
%TA.AperFunction,Conductor*%
%ADD17C,0.200000*%
%TD*%
G04 APERTURE END LIST*
D10*
X20390000Y24950000D03*
D11*
X17850000Y24950000D03*
X15310000Y24950000D03*
X12770000Y24950000D03*
X10230000Y24950000D03*
X7690000Y24950000D03*
D10*
X3790000Y53340000D03*
D11*
X3790000Y50800000D03*
X3790000Y48260000D03*
X3790000Y45720000D03*
X3790000Y43180000D03*
X3790000Y40640000D03*
X3790000Y38100000D03*
X3790000Y35560000D03*
X3790000Y33020000D03*
X3790000Y30480000D03*
X3790000Y27940000D03*
X3790000Y25400000D03*
X3790000Y22860000D03*
X3790000Y20320000D03*
X3790000Y17780000D03*
X3790000Y15240000D03*
X3790000Y12700000D03*
X3790000Y10160000D03*
X3790000Y7620000D03*
X3790000Y5080000D03*
D10*
X24110000Y53340000D03*
D11*
X24110000Y50800000D03*
X24110000Y48260000D03*
X24110000Y45720000D03*
X24110000Y43180000D03*
X24110000Y40640000D03*
X24110000Y38100000D03*
X24110000Y35560000D03*
X24110000Y33020000D03*
X24110000Y30480000D03*
X24110000Y27940000D03*
X24110000Y25400000D03*
X24110000Y22860000D03*
X24110000Y20320000D03*
X24110000Y17780000D03*
X24110000Y15240000D03*
X24110000Y12700000D03*
X24110000Y10160000D03*
X24110000Y7620000D03*
X24110000Y5080000D03*
D12*
X11700000Y10930000D03*
D13*
X11610000Y7100000D03*
D12*
X10229998Y55030000D03*
X10230000Y29680000D03*
D13*
X26000000Y20860000D03*
D12*
X16160000Y52930000D03*
D13*
X8160000Y33130000D03*
X18000000Y60000000D03*
X5000000Y59000000D03*
X27000000Y44000000D03*
X20000000Y19000000D03*
X7000000Y61000000D03*
X9060000Y52040000D03*
X5580000Y52630000D03*
X21000000Y61000000D03*
X20880000Y30840000D03*
D14*
X27000000Y11000000D03*
D13*
X1000000Y58000000D03*
X7000000Y55000000D03*
X26000000Y2000000D03*
X3000000Y1000000D03*
X21580000Y54920000D03*
X21000000Y2000000D03*
X22000000Y58000000D03*
X1000000Y53000000D03*
X1000000Y47000000D03*
X7870000Y26660000D03*
X27000000Y50000000D03*
X22230000Y40590000D03*
X27000000Y58000000D03*
D12*
X16000000Y58000000D03*
D13*
X9150000Y50750000D03*
X10920000Y14810000D03*
X11140000Y27550000D03*
X12960000Y22050000D03*
X12960006Y19710000D03*
X11220000Y49500000D03*
X17950000Y46361400D03*
X17493538Y14620706D03*
X18260000Y14621100D03*
X13170000Y46930000D03*
X18510000Y43708600D03*
X13170000Y43710000D03*
X13317500Y41160000D03*
X15300000Y12800000D03*
X15370000Y22090000D03*
X15870000Y41170000D03*
X12990000Y27430000D03*
X15870000Y45670000D03*
X17950000Y12720000D03*
X12611100Y44400000D03*
X12710000Y39130000D03*
X18024455Y11925545D03*
X15599300Y37177702D03*
X15320000Y43130000D03*
X17990000Y11140000D03*
X18940000Y42410000D03*
X18940000Y33075100D03*
X18000000Y10370000D03*
X17380000Y32575100D03*
X17381100Y40590000D03*
X15860000Y31890000D03*
X18010000Y9610000D03*
X15870000Y39320000D03*
X14838900Y20870000D03*
X5545545Y8535545D03*
X14778898Y37450000D03*
X15040000Y27750000D03*
X5640000Y7690000D03*
X14690000Y36170000D03*
X17830000Y19790000D03*
X5941459Y35520002D03*
X19830000Y31350000D03*
X5830000Y31340000D03*
X5489992Y25360026D03*
X19830000Y28390000D03*
X10360000Y10090000D03*
X10540000Y13290000D03*
X7380000Y32600000D03*
X12611100Y37360000D03*
X12611100Y35349700D03*
X9000000Y32510000D03*
X10670000Y14090000D03*
X12599996Y32550000D03*
X10470000Y12480000D03*
X4660000Y36790000D03*
X6490859Y32136412D03*
X5620000Y38780000D03*
X10900000Y11680000D03*
X2021100Y39180000D03*
X6080000Y9280000D03*
X14389997Y41860003D03*
X14390000Y50060000D03*
X14776288Y14778284D03*
X26350000Y41780000D03*
X26620000Y12900000D03*
X13450000Y14550000D03*
X9450000Y53350000D03*
X13849990Y44400000D03*
X13850000Y53350000D03*
X16770000Y47540000D03*
X16770000Y45670000D03*
X15978761Y14627503D03*
X16736136Y14621080D03*
X17390000Y46940000D03*
X12530000Y14570000D03*
X13230000Y48741100D03*
X26240000Y51880000D03*
X26240000Y22860000D03*
X11761098Y51568899D03*
X10990000Y19120000D03*
X13490000Y55930000D03*
X14180000Y2300000D03*
X14200000Y8470000D03*
X1610000Y2390000D03*
X17440000Y2290000D03*
X26080000Y17830000D03*
X26020000Y8740000D03*
X15560000Y2310000D03*
X20390000Y21370000D03*
X20390000Y29800000D03*
X2070000Y21500000D03*
X12684455Y29365545D03*
D15*
X10230000Y24950000D02*
X10185100Y24994900D01*
X10230000Y29680000D02*
X10230000Y55029998D01*
X10185100Y24994900D02*
X10185100Y29635100D01*
D16*
X11610000Y10840000D02*
X11700000Y10930000D01*
D15*
X11700000Y16070000D02*
X10230000Y17540000D01*
D16*
X11610000Y7100000D02*
X11610000Y10840000D01*
D15*
X10230000Y17540000D02*
X10230000Y24950000D01*
X11700000Y10930000D02*
X11700000Y16070000D01*
X10185100Y29635100D02*
X10230000Y29680000D01*
D16*
X16160000Y57840000D02*
X16000000Y58000000D01*
D15*
X16190000Y52960000D02*
X16190000Y57810000D01*
X16160000Y52930000D02*
X16190000Y52960000D01*
D17*
X8160000Y33130000D02*
X8160000Y26950000D01*
X8160000Y26950000D02*
X7870000Y26660000D01*
D15*
X16190000Y57810000D02*
X16160000Y57840000D01*
D16*
X9660000Y30728948D02*
X9660000Y50240000D01*
X10920000Y14810000D02*
X9150000Y16580000D01*
X9150000Y30218948D02*
X9660000Y30728948D01*
X9660000Y50240000D02*
X9150000Y50750000D01*
X9150000Y16580000D02*
X9150000Y30218948D01*
X11220000Y49500000D02*
X11220000Y27630000D01*
X11220000Y27630000D02*
X11140000Y27550000D01*
X12960000Y19710006D02*
X12960000Y22050000D01*
X12960006Y19710000D02*
X12960000Y19710006D01*
X18928600Y16055768D02*
X17493538Y14620706D01*
X17950000Y27020000D02*
X18928600Y26041400D01*
X17950000Y46361400D02*
X17950000Y27020000D01*
X18928600Y26041400D02*
X18928600Y16055768D01*
X18260000Y27400000D02*
X19240000Y26420000D01*
X19240000Y26420000D02*
X19240000Y15601100D01*
X13170000Y43710000D02*
X13170000Y46930000D01*
X18260000Y43458600D02*
X18260000Y27400000D01*
X18510000Y43708600D02*
X18260000Y43458600D01*
X19240000Y15601100D02*
X18260000Y14621100D01*
X13317500Y27757500D02*
X12990000Y27430000D01*
X13317500Y41160000D02*
X13317500Y27757500D01*
X15870000Y41170000D02*
X15870000Y45670000D01*
X15370000Y12870000D02*
X15370000Y22090000D01*
X15300000Y12800000D02*
X15370000Y12870000D01*
X17950000Y12720000D02*
X21784800Y16554800D01*
X21784800Y16554800D02*
X21784800Y35774800D01*
X12480000Y39360000D02*
X12480000Y44268900D01*
X21784800Y35774800D02*
X24110000Y38100000D01*
X12710000Y39130000D02*
X12480000Y39360000D01*
X12480000Y44268900D02*
X12611100Y44400000D01*
X15310000Y37467002D02*
X15599300Y37177702D01*
X15320000Y43130000D02*
X15310000Y43120000D01*
X22104800Y33554800D02*
X22104800Y16005890D01*
X24110000Y35560000D02*
X22104800Y33554800D01*
X22104800Y16005890D02*
X18024455Y11925545D01*
X15310000Y43120000D02*
X15310000Y37467002D01*
X22420000Y31330000D02*
X24110000Y33020000D01*
X22420000Y15570000D02*
X22420000Y31330000D01*
X18940000Y42410000D02*
X18940000Y33075100D01*
X17990000Y11140000D02*
X22420000Y15570000D01*
X17380000Y40588900D02*
X17381100Y40590000D01*
X18000000Y10370000D02*
X22724800Y15094800D01*
X22724800Y29094800D02*
X24110000Y30480000D01*
X22724800Y15094800D02*
X22724800Y29094800D01*
X17380000Y32575100D02*
X17380000Y40588900D01*
X18010000Y9610000D02*
X23029600Y14629600D01*
X16130400Y39059600D02*
X16130400Y35980400D01*
X15870000Y39320000D02*
X16130400Y39059600D01*
X23029600Y14629600D02*
X23029600Y26859600D01*
X15860000Y35710000D02*
X15860000Y31890000D01*
X23029600Y26859600D02*
X24110000Y27940000D01*
X16130400Y35980400D02*
X15860000Y35710000D01*
X15310000Y28291089D02*
X15310000Y36377962D01*
X15310000Y24950000D02*
X14460000Y24100000D01*
X14778898Y36909064D02*
X14778898Y37450000D01*
X5190400Y8890690D02*
X5545545Y8535545D01*
X15310000Y24950000D02*
X15591100Y25231100D01*
X15591100Y28009989D02*
X15310000Y28291089D01*
X15310000Y36377962D02*
X14778898Y36909064D01*
X5190400Y18919600D02*
X5190400Y8890690D01*
X14460000Y24100000D02*
X14460000Y21248900D01*
X14460000Y21248900D02*
X14838900Y20870000D01*
X15591100Y25231100D02*
X15591100Y28009989D01*
X3790000Y20320000D02*
X5190400Y18919600D01*
X4885600Y16684400D02*
X4885600Y8444400D01*
X14770000Y36090000D02*
X14770000Y28020000D01*
X17850000Y19810000D02*
X17850000Y24950000D01*
X14690000Y36170000D02*
X14770000Y36090000D01*
X3790000Y17780000D02*
X4885600Y16684400D01*
X4885600Y8444400D02*
X5640000Y7690000D01*
X17830000Y19790000D02*
X17850000Y19810000D01*
X14770000Y28020000D02*
X15040000Y27750000D01*
X5830000Y31340000D02*
X5830000Y35408543D01*
X5800000Y21811052D02*
X5775600Y21835452D01*
X10360000Y10090000D02*
X5980000Y10090000D01*
X3790000Y24400000D02*
X3790000Y25400000D01*
X5775600Y21835452D02*
X5775600Y22414400D01*
X5775600Y22414400D02*
X3790000Y24400000D01*
X5830000Y35408543D02*
X5941459Y35520002D01*
X19830000Y31430000D02*
X19830000Y31350000D01*
X5800000Y10270000D02*
X5800000Y21811052D01*
X5489992Y30999992D02*
X5489992Y25360026D01*
X19830000Y28390000D02*
X19830000Y31430000D01*
X5980000Y10090000D02*
X5800000Y10270000D01*
X5830000Y31340000D02*
X5489992Y30999992D01*
X6830000Y24284629D02*
X6600000Y24514629D01*
X7380000Y30170000D02*
X7380000Y32600000D01*
X10540000Y13290000D02*
X7120000Y13290000D01*
X7120000Y13290000D02*
X6830000Y13580000D01*
X6600000Y29390000D02*
X7380000Y30170000D01*
X6600000Y24514629D02*
X6600000Y29390000D01*
X6830000Y13580000D02*
X6830000Y24284629D01*
X9000000Y30700000D02*
X9000000Y32510000D01*
X8768600Y22548600D02*
X8768600Y30468600D01*
X12611100Y35349700D02*
X12611100Y32561104D01*
X8768600Y30468600D02*
X9000000Y30700000D01*
X10670000Y14090000D02*
X8100000Y16660000D01*
X12611100Y32561104D02*
X12599996Y32550000D01*
X8100000Y21880000D02*
X8768600Y22548600D01*
X12611100Y35349700D02*
X12611100Y37360000D01*
X8100000Y16660000D02*
X8100000Y21880000D01*
X6490859Y29730859D02*
X6490859Y32136412D01*
X6121100Y24199300D02*
X6121100Y29361100D01*
X10470000Y12480000D02*
X6690000Y12480000D01*
X6415200Y12754800D02*
X6415200Y23905200D01*
X6415200Y23905200D02*
X6121100Y24199300D01*
X6690000Y12480000D02*
X6415200Y12754800D01*
X4868600Y36581400D02*
X4660000Y36790000D01*
X3790000Y33020000D02*
X4868600Y34098600D01*
X4868600Y34098600D02*
X4868600Y36581400D01*
X6121100Y29361100D02*
X6490859Y29730859D01*
X6190000Y11680000D02*
X10900000Y11680000D01*
X6110400Y22688548D02*
X6110400Y11759600D01*
X5658700Y36238700D02*
X5410359Y35990359D01*
X5410359Y32100359D02*
X3790000Y30480000D01*
X4945200Y29324800D02*
X4945200Y23853748D01*
X4945200Y23853748D02*
X6110400Y22688548D01*
X5620000Y38780000D02*
X5658700Y38741300D01*
X5410359Y35990359D02*
X5410359Y32100359D01*
X3790000Y30480000D02*
X4945200Y29324800D01*
X6110400Y11759600D02*
X6190000Y11680000D01*
X5658700Y38741300D02*
X5658700Y36238700D01*
X5495200Y9864800D02*
X5495200Y20884800D01*
X2021100Y24628900D02*
X2021100Y39180000D01*
X6080000Y9280000D02*
X5495200Y9864800D01*
X5495200Y20884800D02*
X3790000Y22590000D01*
X3790000Y22860000D02*
X2021100Y24628900D01*
X3790000Y22590000D02*
X3790000Y22860000D01*
X14390000Y50060000D02*
X14390000Y41860006D01*
X14389997Y41860003D02*
X14154833Y41624839D01*
X14154833Y15399739D02*
X14776288Y14778284D01*
X14154833Y41624839D02*
X14154833Y15399739D01*
X26900000Y41230000D02*
X26350000Y41780000D01*
X26620000Y12900000D02*
X26900000Y13180000D01*
X26900000Y13180000D02*
X26900000Y41230000D01*
X9440000Y53340000D02*
X3790000Y53340000D01*
X9450000Y53350000D02*
X9440000Y53340000D01*
X13849990Y14949990D02*
X13849990Y44400000D01*
X13450000Y14550000D02*
X13849990Y14949990D01*
X13850000Y44400010D02*
X13849990Y44400000D01*
X13850000Y53350000D02*
X13850000Y44400010D01*
X16435200Y15083942D02*
X15978761Y14627503D01*
X16770000Y45670000D02*
X16435200Y45335200D01*
X16770000Y47540000D02*
X16770000Y45670000D01*
X16435200Y45335200D02*
X16435200Y15083942D01*
X16850000Y44640000D02*
X16850000Y34190000D01*
X17380000Y45170000D02*
X16850000Y44640000D01*
X16760000Y14644944D02*
X16736136Y14621080D01*
X17380000Y46930000D02*
X17380000Y45170000D01*
X16850000Y34190000D02*
X16760000Y34100000D01*
X17390000Y46940000D02*
X17380000Y46930000D01*
X16760000Y34100000D02*
X16760000Y14644944D01*
X11691400Y19505163D02*
X11691400Y26499259D01*
X12530000Y18666563D02*
X11691400Y19505163D01*
X12068896Y26876755D02*
X12068896Y47579996D01*
X12068896Y47579996D02*
X13230000Y48741100D01*
X11691400Y26499259D02*
X12068896Y26876755D01*
X12530000Y14570000D02*
X12530000Y18666563D01*
X25818900Y51458900D02*
X25818900Y23281100D01*
X26240000Y51880000D02*
X25818900Y51458900D01*
X25818900Y23281100D02*
X26240000Y22860000D01*
X11379989Y19509989D02*
X11379989Y26618900D01*
X11761098Y27000009D02*
X11761098Y51568899D01*
X13490000Y55930000D02*
X13390000Y55930000D01*
X11379989Y26618900D02*
X11761098Y27000009D01*
X11761098Y54301098D02*
X11761098Y51568899D01*
X10990000Y19120000D02*
X11379989Y19509989D01*
X13390000Y55930000D02*
X11761098Y54301098D01*
X14180000Y2300000D02*
X14180000Y8450000D01*
X14180000Y8450000D02*
X14200000Y8470000D01*
X1185200Y43115200D02*
X1185200Y2814800D01*
X1185200Y2814800D02*
X1610000Y2390000D01*
X3790000Y45720000D02*
X1185200Y43115200D01*
X3210000Y1670000D02*
X1490000Y3390000D01*
X17440000Y2290000D02*
X16820000Y1670000D01*
X1490000Y3390000D02*
X1490000Y40880000D01*
X1490000Y40880000D02*
X3790000Y43180000D01*
X16820000Y1670000D02*
X3210000Y1670000D01*
X25710000Y17460000D02*
X26080000Y17830000D01*
X25710000Y9050000D02*
X25710000Y17460000D01*
X26020000Y8740000D02*
X25710000Y9050000D01*
X16690000Y2940000D02*
X21970000Y2940000D01*
X21970000Y2940000D02*
X24110000Y5080000D01*
X15560000Y2310000D02*
X16060000Y2310000D01*
X16060000Y2310000D02*
X16690000Y2940000D01*
X20390000Y24950000D02*
X20390000Y29800000D01*
X20390000Y21370000D02*
X20390000Y24950000D01*
X3790000Y15240000D02*
X2070000Y16960000D01*
X2070000Y16960000D02*
X2070000Y21500000D01*
X12390000Y29071090D02*
X12684455Y29365545D01*
X12390000Y25330000D02*
X12390000Y29071090D01*
X12770000Y24950000D02*
X12390000Y25330000D01*
%TA.AperFunction,Conductor*%
G36*
X27193033Y63699172D02*
G01*
X27193064Y63699169D01*
X27202083Y63699170D01*
X27202087Y63699168D01*
X27245612Y63699170D01*
X27253712Y63698639D01*
X27311277Y63691064D01*
X27349834Y63685989D01*
X27381100Y63677612D01*
X27458563Y63645527D01*
X27459348Y63645202D01*
X27487380Y63629018D01*
X27554573Y63577460D01*
X27577459Y63554574D01*
X27601742Y63522928D01*
X27629016Y63487383D01*
X27645201Y63459349D01*
X27677610Y63381104D01*
X27685988Y63349833D01*
X27698638Y63253713D01*
X27699169Y63245613D01*
X27699168Y63192108D01*
X27699170Y63192083D01*
X27699170Y41431012D01*
X27679485Y41363973D01*
X27626681Y41318218D01*
X27557523Y41308274D01*
X27493967Y41337299D01*
X27460609Y41383559D01*
X27403746Y41520838D01*
X27370505Y41564159D01*
X27333260Y41612698D01*
X27333252Y41612708D01*
X27325089Y41623346D01*
X27311307Y41641307D01*
X27299952Y41650020D01*
X27284283Y41662044D01*
X27278180Y41667397D01*
X27187810Y41757767D01*
X27154325Y41819090D01*
X27152271Y41831565D01*
X27137822Y41959808D01*
X27137821Y41959813D01*
X27137821Y41959815D01*
X27078056Y42130613D01*
X26981783Y42283830D01*
X26853830Y42411783D01*
X26700612Y42508057D01*
X26529809Y42567823D01*
X26505716Y42570537D01*
X26441302Y42597604D01*
X26401747Y42655198D01*
X26395600Y42693757D01*
X26395600Y50995723D01*
X26415285Y51062762D01*
X26468089Y51108517D01*
X26478646Y51112765D01*
X26590613Y51151944D01*
X26743830Y51248217D01*
X26871783Y51376170D01*
X26968056Y51529387D01*
X27027821Y51700185D01*
X27038315Y51793326D01*
X27048081Y51879997D01*
X27048081Y51880004D01*
X27027822Y52059807D01*
X27027821Y52059813D01*
X27027821Y52059815D01*
X26968056Y52230613D01*
X26871783Y52383830D01*
X26743830Y52511783D01*
X26663624Y52562180D01*
X26590612Y52608057D01*
X26419812Y52667822D01*
X26419806Y52667823D01*
X26240004Y52688081D01*
X26239996Y52688081D01*
X26060193Y52667823D01*
X26060187Y52667822D01*
X25889387Y52608057D01*
X25736171Y52511784D01*
X25672180Y52447793D01*
X25610856Y52414309D01*
X25541165Y52419294D01*
X25485231Y52461165D01*
X25460815Y52526630D01*
X25460499Y52535449D01*
X25460499Y54237872D01*
X25454091Y54297483D01*
X25403796Y54432331D01*
X25403795Y54432332D01*
X25403793Y54432336D01*
X25317547Y54547545D01*
X25317544Y54547548D01*
X25202335Y54633794D01*
X25202328Y54633798D01*
X25067482Y54684092D01*
X25067483Y54684092D01*
X25007883Y54690499D01*
X25007881Y54690500D01*
X25007873Y54690500D01*
X25007864Y54690500D01*
X23212129Y54690500D01*
X23212123Y54690499D01*
X23152516Y54684092D01*
X23017671Y54633798D01*
X23017664Y54633794D01*
X22902455Y54547548D01*
X22902452Y54547545D01*
X22816206Y54432336D01*
X22816202Y54432329D01*
X22765908Y54297483D01*
X22759501Y54237884D01*
X22759501Y54237877D01*
X22759500Y54237865D01*
X22759500Y52442130D01*
X22759501Y52442124D01*
X22765908Y52382517D01*
X22816202Y52247672D01*
X22816206Y52247665D01*
X22902452Y52132456D01*
X22902455Y52132453D01*
X23017664Y52046207D01*
X23017671Y52046203D01*
X23149081Y51997190D01*
X23205015Y51955319D01*
X23229432Y51889855D01*
X23214580Y51821582D01*
X23193430Y51793327D01*
X23071503Y51671400D01*
X22935965Y51477831D01*
X22935964Y51477829D01*
X22836098Y51263665D01*
X22836094Y51263656D01*
X22774938Y51035414D01*
X22774936Y51035404D01*
X22754341Y50800001D01*
X22754341Y50800000D01*
X22774936Y50564597D01*
X22774938Y50564587D01*
X22836094Y50336345D01*
X22836096Y50336341D01*
X22836097Y50336337D01*
X22878143Y50246170D01*
X22935965Y50122170D01*
X22935967Y50122166D01*
X23044281Y49967479D01*
X23067178Y49934778D01*
X23071501Y49928605D01*
X23071506Y49928598D01*
X23238597Y49761507D01*
X23238603Y49761502D01*
X23424158Y49631575D01*
X23467783Y49576998D01*
X23474977Y49507500D01*
X23443454Y49445145D01*
X23424158Y49428425D01*
X23238597Y49298495D01*
X23071505Y49131403D01*
X22935965Y48937831D01*
X22935964Y48937829D01*
X22836098Y48723665D01*
X22836094Y48723656D01*
X22774938Y48495414D01*
X22774936Y48495404D01*
X22754341Y48260001D01*
X22754341Y48260000D01*
X22774936Y48024597D01*
X22774938Y48024587D01*
X22836094Y47796345D01*
X22836096Y47796341D01*
X22836097Y47796337D01*
X22870808Y47721899D01*
X22935965Y47582170D01*
X22935967Y47582166D01*
X23071501Y47388605D01*
X23071506Y47388598D01*
X23238597Y47221507D01*
X23238603Y47221502D01*
X23424158Y47091575D01*
X23467783Y47036998D01*
X23474977Y46967500D01*
X23443454Y46905145D01*
X23424158Y46888425D01*
X23238597Y46758495D01*
X23071505Y46591403D01*
X22935965Y46397831D01*
X22935964Y46397829D01*
X22836098Y46183665D01*
X22836094Y46183656D01*
X22774938Y45955414D01*
X22774936Y45955404D01*
X22754341Y45720001D01*
X22754341Y45720000D01*
X22774936Y45484597D01*
X22774938Y45484587D01*
X22836094Y45256345D01*
X22836096Y45256341D01*
X22836097Y45256337D01*
X22915488Y45086083D01*
X22935965Y45042170D01*
X22935967Y45042166D01*
X23071501Y44848605D01*
X23071506Y44848598D01*
X23238597Y44681507D01*
X23238603Y44681502D01*
X23424158Y44551575D01*
X23467783Y44496998D01*
X23474977Y44427500D01*
X23443454Y44365145D01*
X23424158Y44348425D01*
X23238597Y44218495D01*
X23071505Y44051403D01*
X22935965Y43857831D01*
X22935964Y43857829D01*
X22836098Y43643665D01*
X22836094Y43643656D01*
X22774938Y43415414D01*
X22774936Y43415404D01*
X22754341Y43180001D01*
X22754341Y43180000D01*
X22774936Y42944597D01*
X22774938Y42944587D01*
X22836094Y42716345D01*
X22836096Y42716341D01*
X22836097Y42716337D01*
X22933220Y42508057D01*
X22935965Y42502170D01*
X22935967Y42502166D01*
X23071501Y42308605D01*
X23071506Y42308598D01*
X23238597Y42141507D01*
X23238603Y42141502D01*
X23424158Y42011575D01*
X23467783Y41956998D01*
X23474977Y41887500D01*
X23443454Y41825145D01*
X23424158Y41808425D01*
X23238597Y41678495D01*
X23071505Y41511403D01*
X22935965Y41317831D01*
X22935964Y41317829D01*
X22836098Y41103665D01*
X22836094Y41103656D01*
X22774938Y40875414D01*
X22774936Y40875404D01*
X22754341Y40640001D01*
X22754341Y40640000D01*
X22774936Y40404597D01*
X22774938Y40404587D01*
X22836094Y40176345D01*
X22836096Y40176341D01*
X22836097Y40176337D01*
X22836100Y40176331D01*
X22935965Y39962170D01*
X22935967Y39962166D01*
X23071501Y39768605D01*
X23071506Y39768598D01*
X23238597Y39601507D01*
X23238603Y39601502D01*
X23424158Y39471575D01*
X23467783Y39416998D01*
X23474977Y39347500D01*
X23443454Y39285145D01*
X23424158Y39268425D01*
X23238597Y39138495D01*
X23071505Y38971403D01*
X22935965Y38777831D01*
X22935964Y38777829D01*
X22836098Y38563665D01*
X22836094Y38563656D01*
X22774938Y38335414D01*
X22774936Y38335404D01*
X22754341Y38100001D01*
X22754341Y38100000D01*
X22774936Y37864597D01*
X22774938Y37864587D01*
X22816440Y37709699D01*
X22814777Y37639849D01*
X22784346Y37589925D01*
X21406613Y36212191D01*
X21400510Y36206840D01*
X21373494Y36186108D01*
X21339078Y36141260D01*
X21339078Y36141258D01*
X21323771Y36121308D01*
X21281053Y36065638D01*
X21222944Y35925350D01*
X21222943Y35925348D01*
X21213135Y35850839D01*
X21213135Y35850838D01*
X21203124Y35774800D01*
X21205506Y35756704D01*
X21207569Y35741039D01*
X21208100Y35732937D01*
X21208100Y30416875D01*
X21188415Y30349836D01*
X21135611Y30304081D01*
X21066453Y30294137D01*
X21002897Y30323162D01*
X20996419Y30329194D01*
X20893830Y30431783D01*
X20740612Y30528057D01*
X20569809Y30587823D01*
X20516815Y30593794D01*
X20452401Y30620861D01*
X20412847Y30678457D01*
X20406700Y30717014D01*
X20406700Y30739725D01*
X20426385Y30806764D01*
X20443019Y30827406D01*
X20449033Y30833420D01*
X20461783Y30846170D01*
X20558056Y30999387D01*
X20617821Y31170185D01*
X20638081Y31350000D01*
X20637923Y31351401D01*
X20617822Y31529807D01*
X20617821Y31529813D01*
X20617821Y31529815D01*
X20558056Y31700613D01*
X20461783Y31853830D01*
X20333830Y31981783D01*
X20300154Y32002943D01*
X20180612Y32078057D01*
X20009812Y32137822D01*
X20009806Y32137823D01*
X19830004Y32158081D01*
X19829996Y32158081D01*
X19650193Y32137823D01*
X19650187Y32137822D01*
X19479387Y32078057D01*
X19326169Y31981783D01*
X19198217Y31853831D01*
X19101943Y31700613D01*
X19077742Y31631448D01*
X19037020Y31574672D01*
X18972068Y31548924D01*
X18903506Y31562380D01*
X18853103Y31610767D01*
X18836700Y31672402D01*
X18836700Y32144567D01*
X18856385Y32211606D01*
X18909189Y32257361D01*
X18946817Y32267787D01*
X19119807Y32287278D01*
X19119808Y32287279D01*
X19119815Y32287279D01*
X19290613Y32347044D01*
X19443830Y32443317D01*
X19571783Y32571270D01*
X19668056Y32724487D01*
X19727821Y32895285D01*
X19738934Y32993919D01*
X19748081Y33075097D01*
X19748081Y33075104D01*
X19727822Y33254907D01*
X19727821Y33254913D01*
X19727821Y33254915D01*
X19668056Y33425713D01*
X19571783Y33578930D01*
X19553019Y33597694D01*
X19519534Y33659017D01*
X19516700Y33685375D01*
X19516700Y41799725D01*
X19536385Y41866764D01*
X19553021Y41887408D01*
X19571782Y41906169D01*
X19571783Y41906170D01*
X19668056Y42059387D01*
X19727821Y42230185D01*
X19748081Y42410000D01*
X19747880Y42411783D01*
X19727822Y42589807D01*
X19727821Y42589813D01*
X19727821Y42589815D01*
X19668056Y42760613D01*
X19571783Y42913830D01*
X19443830Y43041783D01*
X19290613Y43138056D01*
X19290612Y43138057D01*
X19290611Y43138057D01*
X19281005Y43141419D01*
X19224231Y43182143D01*
X19198487Y43247097D01*
X19211946Y43315658D01*
X19216972Y43324432D01*
X19220375Y43329848D01*
X19238056Y43357987D01*
X19297821Y43528785D01*
X19310764Y43643656D01*
X19318081Y43708597D01*
X19318081Y43708604D01*
X19297822Y43888407D01*
X19297821Y43888413D01*
X19297821Y43888415D01*
X19238056Y44059213D01*
X19141783Y44212430D01*
X19013830Y44340383D01*
X18875185Y44427500D01*
X18860612Y44436657D01*
X18689809Y44496423D01*
X18636815Y44502394D01*
X18572401Y44529461D01*
X18532847Y44587057D01*
X18526700Y44625614D01*
X18526700Y45751125D01*
X18546385Y45818164D01*
X18563021Y45838808D01*
X18581782Y45857569D01*
X18643256Y45955404D01*
X18678056Y46010787D01*
X18737821Y46181585D01*
X18758081Y46361400D01*
X18753976Y46397829D01*
X18737822Y46541207D01*
X18737821Y46541213D01*
X18737821Y46541215D01*
X18678056Y46712013D01*
X18581783Y46865230D01*
X18453830Y46993183D01*
X18415276Y47017408D01*
X18300615Y47089455D01*
X18300611Y47089457D01*
X18229157Y47114460D01*
X18172381Y47155182D01*
X18153070Y47190547D01*
X18142238Y47221502D01*
X18118056Y47290613D01*
X18109576Y47304108D01*
X18021782Y47443831D01*
X17893830Y47571783D01*
X17740610Y47668058D01*
X17609319Y47713999D01*
X17552543Y47754720D01*
X17533232Y47790086D01*
X17498056Y47890613D01*
X17401782Y48043831D01*
X17273830Y48171783D01*
X17120612Y48268057D01*
X16949812Y48327822D01*
X16949806Y48327823D01*
X16770004Y48348081D01*
X16769996Y48348081D01*
X16590193Y48327823D01*
X16590187Y48327822D01*
X16419387Y48268057D01*
X16266169Y48171783D01*
X16138217Y48043831D01*
X16041943Y47890613D01*
X15982178Y47719813D01*
X15982177Y47719807D01*
X15961919Y47540004D01*
X15961919Y47539997D01*
X15982177Y47360194D01*
X15982178Y47360188D01*
X16041943Y47189388D01*
X16138217Y47036169D01*
X16156979Y47017408D01*
X16190466Y46956086D01*
X16193300Y46929725D01*
X16193300Y46580411D01*
X16173615Y46513372D01*
X16120811Y46467617D01*
X16055417Y46457191D01*
X15870004Y46478081D01*
X15869996Y46478081D01*
X15690193Y46457823D01*
X15690187Y46457822D01*
X15519387Y46398057D01*
X15366169Y46301783D01*
X15238217Y46173831D01*
X15238215Y46173828D01*
X15195693Y46106155D01*
X15143358Y46059864D01*
X15074305Y46049217D01*
X15010457Y46077592D01*
X14972085Y46135982D01*
X14966700Y46172128D01*
X14966700Y49449725D01*
X14986385Y49516764D01*
X15003019Y49537406D01*
X15009916Y49544303D01*
X15021783Y49556170D01*
X15118056Y49709387D01*
X15177821Y49880185D01*
X15183972Y49934778D01*
X15198081Y50059997D01*
X15198081Y50060004D01*
X15177822Y50239807D01*
X15177821Y50239813D01*
X15177821Y50239815D01*
X15118056Y50410613D01*
X15021783Y50563830D01*
X14893830Y50691783D01*
X14740612Y50788057D01*
X14569812Y50847822D01*
X14569808Y50847823D01*
X14536815Y50851540D01*
X14472402Y50878607D01*
X14432847Y50936202D01*
X14426700Y50974760D01*
X14426700Y52739726D01*
X14446385Y52806765D01*
X14463016Y52827404D01*
X14481783Y52846170D01*
X14578056Y52999387D01*
X14637821Y53170185D01*
X14658081Y53350000D01*
X14637821Y53529815D01*
X14578056Y53700613D01*
X14481783Y53853830D01*
X14353830Y53981783D01*
X14200612Y54078057D01*
X14029812Y54137822D01*
X14029806Y54137823D01*
X13850004Y54158081D01*
X13849996Y54158081D01*
X13670193Y54137823D01*
X13670187Y54137822D01*
X13499387Y54078057D01*
X13346169Y53981783D01*
X13218217Y53853831D01*
X13121943Y53700613D01*
X13062178Y53529813D01*
X13062177Y53529807D01*
X13041919Y53350004D01*
X13041919Y53349997D01*
X13062177Y53170194D01*
X13062178Y53170188D01*
X13121943Y52999388D01*
X13121944Y52999387D01*
X13218217Y52846170D01*
X13236980Y52827407D01*
X13270466Y52766087D01*
X13273300Y52739726D01*
X13273300Y49664874D01*
X13253615Y49597835D01*
X13200811Y49552080D01*
X13163184Y49541654D01*
X13050192Y49528923D01*
X13050187Y49528922D01*
X12879387Y49469157D01*
X12726169Y49372883D01*
X12598217Y49244931D01*
X12598215Y49244928D01*
X12566791Y49194917D01*
X12514456Y49148626D01*
X12445403Y49137979D01*
X12381555Y49166354D01*
X12343183Y49224744D01*
X12337798Y49260890D01*
X12337798Y50958625D01*
X12357483Y51025664D01*
X12374114Y51046303D01*
X12392881Y51065069D01*
X12489154Y51218286D01*
X12548919Y51389084D01*
X12558944Y51478057D01*
X12569179Y51568896D01*
X12569179Y51568903D01*
X12548920Y51748706D01*
X12548919Y51748712D01*
X12548919Y51748714D01*
X12489154Y51919512D01*
X12392881Y52072729D01*
X12374117Y52091493D01*
X12340632Y52152816D01*
X12337798Y52179174D01*
X12337798Y54010861D01*
X12357483Y54077900D01*
X12374112Y54098537D01*
X13364639Y55089064D01*
X13425960Y55122547D01*
X13466200Y55124601D01*
X13490000Y55121919D01*
X13490001Y55121920D01*
X13490002Y55121919D01*
X13490003Y55121919D01*
X13669806Y55142178D01*
X13669805Y55142178D01*
X13669815Y55142179D01*
X13840613Y55201944D01*
X13993830Y55298217D01*
X14121783Y55426170D01*
X14218056Y55579387D01*
X14277821Y55750185D01*
X14298081Y55930000D01*
X14288014Y56019345D01*
X14277822Y56109807D01*
X14277821Y56109813D01*
X14277821Y56109815D01*
X14218056Y56280613D01*
X14121783Y56433830D01*
X13993830Y56561783D01*
X13840612Y56658057D01*
X13669812Y56717822D01*
X13669806Y56717823D01*
X13490004Y56738081D01*
X13489996Y56738081D01*
X13310193Y56717823D01*
X13310187Y56717822D01*
X13139387Y56658057D01*
X12986169Y56561783D01*
X12858217Y56433831D01*
X12761943Y56280613D01*
X12702179Y56109815D01*
X12700426Y56094258D01*
X12673356Y56029845D01*
X12664887Y56020466D01*
X11543410Y54898989D01*
X11482087Y54865504D01*
X11412395Y54870488D01*
X11356462Y54912360D01*
X11332045Y54977824D01*
X11332258Y54998112D01*
X11335213Y55030001D01*
X11316395Y55233083D01*
X11316395Y55233084D01*
X11260580Y55429250D01*
X11169671Y55611821D01*
X11110702Y55689908D01*
X11046760Y55774582D01*
X10896039Y55911981D01*
X10896037Y55911983D01*
X10722640Y56019345D01*
X10722633Y56019349D01*
X10627544Y56056187D01*
X10532454Y56093024D01*
X10331974Y56130500D01*
X10128022Y56130500D01*
X9927542Y56093024D01*
X9927539Y56093024D01*
X9927539Y56093023D01*
X9737362Y56019349D01*
X9737355Y56019345D01*
X9563958Y55911983D01*
X9563956Y55911981D01*
X9413235Y55774582D01*
X9290325Y55611822D01*
X9199420Y55429261D01*
X9199415Y55429248D01*
X9143600Y55233083D01*
X9124783Y55030001D01*
X9124783Y55030000D01*
X9143600Y54826918D01*
X9199415Y54630753D01*
X9199420Y54630740D01*
X9290325Y54448179D01*
X9373648Y54337842D01*
X9398340Y54272481D01*
X9383775Y54204146D01*
X9334578Y54154534D01*
X9288582Y54139895D01*
X9270189Y54137823D01*
X9099387Y54078057D01*
X8946169Y53981783D01*
X8917406Y53953019D01*
X8856083Y53919534D01*
X8829725Y53916700D01*
X5264499Y53916700D01*
X5197460Y53936385D01*
X5151705Y53989189D01*
X5140499Y54040700D01*
X5140499Y54237871D01*
X5140498Y54237877D01*
X5140497Y54237884D01*
X5134091Y54297483D01*
X5083796Y54432331D01*
X5083795Y54432332D01*
X5083793Y54432336D01*
X4997547Y54547545D01*
X4997544Y54547548D01*
X4882335Y54633794D01*
X4882328Y54633798D01*
X4747482Y54684092D01*
X4747483Y54684092D01*
X4687883Y54690499D01*
X4687881Y54690500D01*
X4687873Y54690500D01*
X4687864Y54690500D01*
X2892129Y54690500D01*
X2892123Y54690499D01*
X2832516Y54684092D01*
X2697671Y54633798D01*
X2697664Y54633794D01*
X2582455Y54547548D01*
X2582452Y54547545D01*
X2496206Y54432336D01*
X2496202Y54432329D01*
X2445908Y54297483D01*
X2439501Y54237884D01*
X2439501Y54237877D01*
X2439500Y54237865D01*
X2439500Y52442130D01*
X2439501Y52442124D01*
X2445908Y52382517D01*
X2496202Y52247672D01*
X2496206Y52247665D01*
X2582452Y52132456D01*
X2582455Y52132453D01*
X2697664Y52046207D01*
X2697671Y52046203D01*
X2829081Y51997190D01*
X2885015Y51955319D01*
X2909432Y51889855D01*
X2894580Y51821582D01*
X2873430Y51793327D01*
X2751503Y51671400D01*
X2615965Y51477831D01*
X2615964Y51477829D01*
X2516098Y51263665D01*
X2516094Y51263656D01*
X2454938Y51035414D01*
X2454936Y51035404D01*
X2434341Y50800001D01*
X2434341Y50800000D01*
X2454936Y50564597D01*
X2454938Y50564587D01*
X2516094Y50336345D01*
X2516096Y50336341D01*
X2516097Y50336337D01*
X2558143Y50246170D01*
X2615965Y50122170D01*
X2615967Y50122166D01*
X2724281Y49967479D01*
X2747178Y49934778D01*
X2751501Y49928605D01*
X2751506Y49928598D01*
X2918597Y49761507D01*
X2918603Y49761502D01*
X3104158Y49631575D01*
X3147783Y49576998D01*
X3154977Y49507500D01*
X3123454Y49445145D01*
X3104158Y49428425D01*
X2918597Y49298495D01*
X2751505Y49131403D01*
X2615965Y48937831D01*
X2615964Y48937829D01*
X2516098Y48723665D01*
X2516094Y48723656D01*
X2454938Y48495414D01*
X2454936Y48495404D01*
X2434341Y48260001D01*
X2434341Y48260000D01*
X2454936Y48024597D01*
X2454938Y48024587D01*
X2516094Y47796345D01*
X2516096Y47796341D01*
X2516097Y47796337D01*
X2550808Y47721899D01*
X2615965Y47582170D01*
X2615967Y47582166D01*
X2751501Y47388605D01*
X2751506Y47388598D01*
X2918597Y47221507D01*
X2918603Y47221502D01*
X3104158Y47091575D01*
X3147783Y47036998D01*
X3154977Y46967500D01*
X3123454Y46905145D01*
X3104158Y46888425D01*
X2918597Y46758495D01*
X2751505Y46591403D01*
X2615965Y46397831D01*
X2615964Y46397829D01*
X2516098Y46183665D01*
X2516094Y46183656D01*
X2454938Y45955414D01*
X2454936Y45955404D01*
X2434341Y45720001D01*
X2434341Y45720000D01*
X2454936Y45484597D01*
X2454938Y45484587D01*
X2496440Y45329699D01*
X2494777Y45259849D01*
X2464346Y45209925D01*
X807013Y43552591D01*
X800910Y43547240D01*
X773894Y43526508D01*
X738221Y43480020D01*
X681453Y43406039D01*
X623344Y43265750D01*
X623343Y43265748D01*
X603524Y43115202D01*
X603524Y43115200D01*
X607969Y43081439D01*
X608500Y43073338D01*
X608500Y2856665D01*
X607969Y2848564D01*
X603524Y2814802D01*
X603524Y2814799D01*
X623343Y2664253D01*
X623344Y2664251D01*
X681453Y2523962D01*
X748752Y2436256D01*
X748754Y2436254D01*
X773893Y2403493D01*
X773894Y2403493D01*
X778840Y2397047D01*
X777575Y2396077D01*
X806568Y2342980D01*
X808622Y2330505D01*
X822177Y2210193D01*
X822178Y2210188D01*
X881943Y2039388D01*
X881944Y2039387D01*
X978217Y1886170D01*
X1106170Y1758217D01*
X1259387Y1661944D01*
X1430185Y1602179D01*
X1430191Y1602179D01*
X1430193Y1602178D01*
X1609996Y1581919D01*
X1610000Y1581919D01*
X1610004Y1581919D01*
X1789806Y1602178D01*
X1789805Y1602178D01*
X1789815Y1602179D01*
X1960613Y1661944D01*
X2113830Y1758217D01*
X2122337Y1766724D01*
X2183660Y1800209D01*
X2253352Y1795225D01*
X2297699Y1766724D01*
X2772603Y1291820D01*
X2777956Y1285717D01*
X2777960Y1285712D01*
X2798693Y1258693D01*
X2823111Y1239957D01*
X2827292Y1236748D01*
X2827302Y1236740D01*
X2828938Y1235485D01*
X2919162Y1166254D01*
X3059451Y1108144D01*
X3134725Y1098235D01*
X3209999Y1088324D01*
X3210000Y1088324D01*
X3210001Y1088324D01*
X3222994Y1090035D01*
X3243765Y1092770D01*
X3251864Y1093300D01*
X16778136Y1093300D01*
X16786234Y1092770D01*
X16807005Y1090035D01*
X16819999Y1088324D01*
X16820000Y1088324D01*
X16820001Y1088324D01*
X16870182Y1094931D01*
X16970549Y1108144D01*
X17110838Y1166254D01*
X17201062Y1235485D01*
X17201062Y1235486D01*
X17224000Y1253086D01*
X17224005Y1253090D01*
X17231305Y1258691D01*
X17231309Y1258696D01*
X17252043Y1285719D01*
X17257385Y1291810D01*
X17417767Y1452192D01*
X17479088Y1485675D01*
X17491564Y1487729D01*
X17619809Y1502178D01*
X17619811Y1502179D01*
X17619815Y1502179D01*
X17619818Y1502181D01*
X17619822Y1502181D01*
X17790610Y1561943D01*
X17790609Y1561943D01*
X17790613Y1561944D01*
X17943830Y1658217D01*
X18071783Y1786170D01*
X18168056Y1939387D01*
X18227821Y2110185D01*
X18239088Y2210185D01*
X18243933Y2253183D01*
X18270999Y2317597D01*
X18328594Y2357152D01*
X18367153Y2363300D01*
X21928136Y2363300D01*
X21936234Y2362770D01*
X21957005Y2360035D01*
X21969999Y2358324D01*
X21970000Y2358324D01*
X21970001Y2358324D01*
X22020182Y2364931D01*
X22120549Y2378144D01*
X22260838Y2436254D01*
X22351062Y2505485D01*
X22351062Y2505486D01*
X22374000Y2523086D01*
X22374005Y2523090D01*
X22381305Y2528691D01*
X22381307Y2528693D01*
X22402043Y2555719D01*
X22407385Y2561810D01*
X23599924Y3754349D01*
X23661245Y3787832D01*
X23719696Y3786441D01*
X23786343Y3768584D01*
X23874592Y3744937D01*
X24062918Y3728461D01*
X24109999Y3724341D01*
X24110000Y3724341D01*
X24110001Y3724341D01*
X24149234Y3727774D01*
X24345408Y3744937D01*
X24573663Y3806097D01*
X24787830Y3905965D01*
X24981401Y4041505D01*
X25148495Y4208599D01*
X25284035Y4402170D01*
X25383903Y4616337D01*
X25445063Y4844592D01*
X25465659Y5080000D01*
X25445063Y5315408D01*
X25383903Y5543663D01*
X25284035Y5757829D01*
X25148495Y5951401D01*
X25148494Y5951403D01*
X24981402Y6118494D01*
X24981401Y6118495D01*
X24795842Y6248425D01*
X24795841Y6248426D01*
X24752216Y6303003D01*
X24745024Y6372502D01*
X24776546Y6434856D01*
X24795836Y6451572D01*
X24981401Y6581505D01*
X25148495Y6748599D01*
X25284035Y6942170D01*
X25383903Y7156337D01*
X25445063Y7384592D01*
X25465659Y7620000D01*
X25445063Y7855408D01*
X25430986Y7907945D01*
X25432649Y7977790D01*
X25471811Y8035653D01*
X25536039Y8063158D01*
X25604941Y8051572D01*
X25616734Y8045028D01*
X25623760Y8040613D01*
X25669387Y8011944D01*
X25840185Y7952179D01*
X25840191Y7952179D01*
X25840193Y7952178D01*
X26019996Y7931919D01*
X26020000Y7931919D01*
X26020004Y7931919D01*
X26199806Y7952178D01*
X26199805Y7952178D01*
X26199815Y7952179D01*
X26370613Y8011944D01*
X26523830Y8108217D01*
X26651783Y8236170D01*
X26748056Y8389387D01*
X26807821Y8560185D01*
X26828081Y8740000D01*
X26818998Y8820613D01*
X26807822Y8919807D01*
X26807821Y8919813D01*
X26807821Y8919815D01*
X26748056Y9090613D01*
X26651783Y9243830D01*
X26523830Y9371783D01*
X26493724Y9390700D01*
X26370615Y9468055D01*
X26370613Y9468056D01*
X26369741Y9468361D01*
X26369254Y9468711D01*
X26364345Y9471074D01*
X26364759Y9471935D01*
X26312967Y9509084D01*
X26287222Y9574038D01*
X26286700Y9585401D01*
X26286700Y11991721D01*
X26306385Y12058760D01*
X26359189Y12104515D01*
X26428347Y12114459D01*
X26438311Y12112608D01*
X26440175Y12112183D01*
X26440185Y12112179D01*
X26440195Y12112178D01*
X26440199Y12112177D01*
X26619996Y12091919D01*
X26620000Y12091919D01*
X26620004Y12091919D01*
X26799806Y12112178D01*
X26799805Y12112178D01*
X26799815Y12112179D01*
X26970613Y12171944D01*
X27123830Y12268217D01*
X27251783Y12396170D01*
X27348056Y12549387D01*
X27407821Y12720185D01*
X27428081Y12900000D01*
X27427419Y12905874D01*
X27436076Y12967214D01*
X27460610Y13026444D01*
X27504450Y13080845D01*
X27570745Y13102910D01*
X27638444Y13085631D01*
X27686054Y13034493D01*
X27699170Y12978989D01*
X27699170Y802454D01*
X27699168Y802426D01*
X27699169Y754388D01*
X27698638Y746288D01*
X27685988Y650168D01*
X27677610Y618897D01*
X27645201Y540652D01*
X27629016Y512618D01*
X27577462Y445430D01*
X27554570Y422538D01*
X27487382Y370984D01*
X27459348Y354799D01*
X27381103Y322390D01*
X27349832Y314012D01*
X27253712Y301362D01*
X27245612Y300831D01*
X27210081Y300832D01*
X27202087Y300832D01*
X27202086Y300832D01*
X27192107Y300832D01*
X27192083Y300830D01*
X807917Y300830D01*
X807892Y300832D01*
X797913Y300832D01*
X789919Y300832D01*
X754387Y300831D01*
X746287Y301362D01*
X650167Y314012D01*
X618896Y322390D01*
X540651Y354799D01*
X512617Y370984D01*
X445426Y422541D01*
X422540Y445427D01*
X370982Y512620D01*
X354798Y540652D01*
X322389Y618897D01*
X314011Y650168D01*
X312923Y658433D01*
X308936Y688723D01*
X301361Y746288D01*
X300830Y754390D01*
X300832Y797913D01*
X300830Y797917D01*
X300831Y809043D01*
X300828Y809067D01*
X300507Y61827371D01*
X2595717Y61827371D01*
X2625892Y61578850D01*
X2695540Y61338399D01*
X2802860Y61112225D01*
X2875941Y61006350D01*
X2945068Y60906203D01*
X3118484Y60725659D01*
X3318615Y60575270D01*
X3540279Y60458931D01*
X3777734Y60379657D01*
X3777737Y60379657D01*
X3777739Y60379656D01*
X4024828Y60339500D01*
X4024831Y60339500D01*
X4212471Y60339500D01*
X4212481Y60339500D01*
X4399527Y60354600D01*
X4642591Y60414510D01*
X4872897Y60512634D01*
X5084481Y60646432D01*
X5271862Y60812437D01*
X5430188Y61006350D01*
X5555357Y61223150D01*
X5644128Y61457220D01*
X5694202Y61702500D01*
X5699234Y61827371D01*
X22395717Y61827371D01*
X22425892Y61578850D01*
X22495540Y61338399D01*
X22602860Y61112225D01*
X22675941Y61006350D01*
X22745068Y60906203D01*
X22918484Y60725659D01*
X23118615Y60575270D01*
X23340279Y60458931D01*
X23577734Y60379657D01*
X23577737Y60379657D01*
X23577739Y60379656D01*
X23824828Y60339500D01*
X23824831Y60339500D01*
X24012471Y60339500D01*
X24012481Y60339500D01*
X24199527Y60354600D01*
X24442591Y60414510D01*
X24672897Y60512634D01*
X24884481Y60646432D01*
X25071862Y60812437D01*
X25230188Y61006350D01*
X25355357Y61223150D01*
X25444128Y61457220D01*
X25494202Y61702500D01*
X25504282Y61952635D01*
X25474107Y62201149D01*
X25474107Y62201151D01*
X25438876Y62322780D01*
X25404459Y62441604D01*
X25297141Y62667772D01*
X25297140Y62667773D01*
X25297139Y62667776D01*
X25154933Y62873795D01*
X25154932Y62873797D01*
X24981516Y63054341D01*
X24781385Y63204730D01*
X24781383Y63204731D01*
X24781382Y63204732D01*
X24559726Y63321067D01*
X24559722Y63321069D01*
X24559721Y63321069D01*
X24322266Y63400343D01*
X24322265Y63400344D01*
X24322260Y63400345D01*
X24075172Y63440500D01*
X24075169Y63440500D01*
X23887519Y63440500D01*
X23887508Y63440500D01*
X23700473Y63425401D01*
X23457411Y63365491D01*
X23227106Y63267368D01*
X23015514Y63133565D01*
X22828143Y62967569D01*
X22669809Y62773647D01*
X22544643Y62556852D01*
X22455871Y62322778D01*
X22405798Y62077507D01*
X22405797Y62077497D01*
X22395717Y61827372D01*
X22395717Y61827371D01*
X5699234Y61827371D01*
X5704282Y61952635D01*
X5674107Y62201149D01*
X5674107Y62201151D01*
X5638876Y62322780D01*
X5604459Y62441604D01*
X5497141Y62667772D01*
X5497140Y62667773D01*
X5497139Y62667776D01*
X5354933Y62873795D01*
X5354932Y62873797D01*
X5181516Y63054341D01*
X4981385Y63204730D01*
X4981383Y63204731D01*
X4981382Y63204732D01*
X4759726Y63321067D01*
X4759722Y63321069D01*
X4759721Y63321069D01*
X4522266Y63400343D01*
X4522265Y63400344D01*
X4522260Y63400345D01*
X4275172Y63440500D01*
X4275169Y63440500D01*
X4087519Y63440500D01*
X4087508Y63440500D01*
X3900473Y63425401D01*
X3657411Y63365491D01*
X3427106Y63267368D01*
X3215514Y63133565D01*
X3028143Y62967569D01*
X2869809Y62773647D01*
X2744643Y62556852D01*
X2655871Y62322778D01*
X2605798Y62077507D01*
X2605797Y62077497D01*
X2595717Y61827372D01*
X2595717Y61827371D01*
X300507Y61827371D01*
X300500Y63245937D01*
X301031Y63254036D01*
X302786Y63267368D01*
X313685Y63350159D01*
X322058Y63381411D01*
X354477Y63459676D01*
X370659Y63487700D01*
X422219Y63554893D01*
X445107Y63577781D01*
X512300Y63629341D01*
X540328Y63645524D01*
X618580Y63677938D01*
X649846Y63686315D01*
X745967Y63698970D01*
X754067Y63699500D01*
X774135Y63699500D01*
X774505Y63699500D01*
X27193033Y63699172D01*
G37*
%TD.AperFunction*%
%TA.AperFunction,Conductor*%
G36*
X21127433Y20869308D02*
G01*
X21183367Y20827437D01*
X21207784Y20761973D01*
X21208100Y20753126D01*
X21208100Y16845040D01*
X21188415Y16778001D01*
X21171781Y16757359D01*
X20028381Y15613959D01*
X19967058Y15580474D01*
X19897366Y15585458D01*
X19841433Y15627330D01*
X19817016Y15692794D01*
X19816700Y15701640D01*
X19816700Y20557507D01*
X19836385Y20624546D01*
X19889189Y20670301D01*
X19958347Y20680245D01*
X20006674Y20662499D01*
X20039384Y20641945D01*
X20039387Y20641944D01*
X20210185Y20582179D01*
X20210191Y20582179D01*
X20210193Y20582178D01*
X20389996Y20561919D01*
X20390000Y20561919D01*
X20390004Y20561919D01*
X20569806Y20582178D01*
X20569805Y20582178D01*
X20569815Y20582179D01*
X20740613Y20641944D01*
X20893830Y20738217D01*
X20996422Y20840810D01*
X21057741Y20874292D01*
X21127433Y20869308D01*
G37*
%TD.AperFunction*%
%TA.AperFunction,Conductor*%
G36*
X25552722Y22423207D02*
G01*
X25589850Y22385400D01*
X25608215Y22356173D01*
X25608217Y22356170D01*
X25736170Y22228217D01*
X25889387Y22131944D01*
X26060185Y22072179D01*
X26060189Y22072179D01*
X26060192Y22072178D01*
X26106141Y22067001D01*
X26213184Y22054941D01*
X26277597Y22027875D01*
X26317152Y21970281D01*
X26323300Y21931721D01*
X26323300Y18749425D01*
X26303615Y18682386D01*
X26250811Y18636631D01*
X26185418Y18626205D01*
X26080005Y18638081D01*
X26079996Y18638081D01*
X25900193Y18617823D01*
X25900187Y18617822D01*
X25729387Y18558057D01*
X25576171Y18461784D01*
X25500902Y18386515D01*
X25439578Y18353031D01*
X25369887Y18358016D01*
X25313953Y18399887D01*
X25300842Y18421786D01*
X25284035Y18457829D01*
X25284034Y18457830D01*
X25284033Y18457833D01*
X25148494Y18651403D01*
X24981402Y18818494D01*
X24981396Y18818499D01*
X24795842Y18948425D01*
X24752217Y19003002D01*
X24745023Y19072500D01*
X24776546Y19134855D01*
X24795842Y19151575D01*
X24831134Y19176287D01*
X24981401Y19281505D01*
X25148495Y19448599D01*
X25284035Y19642170D01*
X25383903Y19856337D01*
X25445063Y20084592D01*
X25465659Y20320000D01*
X25445063Y20555408D01*
X25383903Y20783663D01*
X25284035Y20997829D01*
X25149347Y21190185D01*
X25148494Y21191403D01*
X24981402Y21358494D01*
X24981401Y21358495D01*
X24859746Y21443679D01*
X24795841Y21488426D01*
X24752216Y21543003D01*
X24745024Y21612502D01*
X24776546Y21674856D01*
X24795836Y21691572D01*
X24981401Y21821505D01*
X25148495Y21988599D01*
X25284035Y22182170D01*
X25372476Y22371833D01*
X25418647Y22424271D01*
X25485840Y22443423D01*
X25552722Y22423207D01*
G37*
%TD.AperFunction*%
%TA.AperFunction,Conductor*%
G36*
X7940000Y23619367D02*
G01*
X8035807Y23645037D01*
X8105656Y23643374D01*
X8163519Y23604212D01*
X8191023Y23539983D01*
X8191900Y23525262D01*
X8191900Y22838840D01*
X8172215Y22771801D01*
X8155581Y22751159D01*
X7721813Y22317391D01*
X7715710Y22312039D01*
X7688693Y22291308D01*
X7654285Y22246468D01*
X7654277Y22246456D01*
X7629076Y22213613D01*
X7572649Y22172409D01*
X7502903Y22168254D01*
X7441982Y22202465D01*
X7409228Y22264182D01*
X7406699Y22289098D01*
X7406699Y23532663D01*
X7426384Y23599702D01*
X7440000Y23614503D01*
X7440000Y24514499D01*
X7547685Y24465320D01*
X7654237Y24450000D01*
X7725763Y24450000D01*
X7832315Y24465320D01*
X7940000Y24514499D01*
X7940000Y23619367D01*
G37*
%TD.AperFunction*%
%TA.AperFunction,Conductor*%
G36*
X8160639Y30109161D02*
G01*
X8190419Y30045955D01*
X8191900Y30026847D01*
X8191900Y26374740D01*
X8172215Y26307701D01*
X8119411Y26261946D01*
X8050253Y26252002D01*
X8035807Y26254965D01*
X7940000Y26280637D01*
X7940000Y25385502D01*
X7832315Y25434680D01*
X7725763Y25450000D01*
X7654237Y25450000D01*
X7547685Y25434680D01*
X7440000Y25385502D01*
X7440000Y26280636D01*
X7439999Y26280637D01*
X7332793Y26251911D01*
X7262943Y26253574D01*
X7205081Y26292737D01*
X7177577Y26356965D01*
X7176700Y26371686D01*
X7176700Y29099762D01*
X7196385Y29166801D01*
X7213015Y29187439D01*
X7758191Y29732616D01*
X7764281Y29737957D01*
X7791307Y29758693D01*
X7823049Y29800060D01*
X7883747Y29879162D01*
X7941856Y30019452D01*
X7943783Y30034085D01*
X7944961Y30043030D01*
X7973226Y30106927D01*
X8031550Y30145399D01*
X8101414Y30146232D01*
X8160639Y30109161D01*
G37*
%TD.AperFunction*%
%TA.AperFunction,Conductor*%
G36*
X8242167Y32196589D02*
G01*
X8266973Y32164488D01*
X8268239Y32165283D01*
X8368217Y32006170D01*
X8386981Y31987406D01*
X8420466Y31926083D01*
X8423300Y31899725D01*
X8423300Y30991706D01*
X8403615Y30924667D01*
X8374790Y30893335D01*
X8357293Y30879907D01*
X8357292Y30879906D01*
X8321621Y30833420D01*
X8264853Y30759439D01*
X8206744Y30619150D01*
X8206744Y30619149D01*
X8203639Y30595563D01*
X8175372Y30531667D01*
X8117048Y30493196D01*
X8047183Y30492365D01*
X7987960Y30529437D01*
X7958181Y30592643D01*
X7956700Y30611749D01*
X7956700Y31989725D01*
X7976385Y32056764D01*
X7993019Y32077406D01*
X7993670Y32078057D01*
X8011783Y32096170D01*
X8056931Y32168024D01*
X8109265Y32214315D01*
X8178319Y32224964D01*
X8242167Y32196589D01*
G37*
%TD.AperFunction*%
%TA.AperFunction,Conductor*%
G36*
X8916764Y52743615D02*
G01*
X8937406Y52726981D01*
X8946170Y52718217D01*
X9099387Y52621944D01*
X9099389Y52621943D01*
X9270177Y52562181D01*
X9270182Y52562180D01*
X9270185Y52562179D01*
X9319383Y52556636D01*
X9383796Y52529571D01*
X9423352Y52471977D01*
X9429500Y52433416D01*
X9429500Y51665346D01*
X9409815Y51598307D01*
X9357011Y51552552D01*
X9291617Y51542126D01*
X9150004Y51558081D01*
X9149996Y51558081D01*
X8970193Y51537823D01*
X8970187Y51537822D01*
X8799387Y51478057D01*
X8646169Y51381783D01*
X8518217Y51253831D01*
X8421943Y51100613D01*
X8362178Y50929813D01*
X8362177Y50929807D01*
X8341919Y50750004D01*
X8341919Y50749997D01*
X8362177Y50570194D01*
X8362178Y50570188D01*
X8421943Y50399388D01*
X8421944Y50399387D01*
X8518217Y50246170D01*
X8646170Y50118217D01*
X8799387Y50021944D01*
X8799389Y50021943D01*
X8970177Y49962181D01*
X8970181Y49962181D01*
X8970185Y49962179D01*
X8973178Y49961842D01*
X8974981Y49961085D01*
X8976972Y49960630D01*
X8976892Y49960282D01*
X9037593Y49934778D01*
X9077151Y49877185D01*
X9083300Y49838621D01*
X9083300Y33438280D01*
X9063615Y33371241D01*
X9010811Y33325486D01*
X8973183Y33315060D01*
X8820193Y33297823D01*
X8820187Y33297822D01*
X8649387Y33238057D01*
X8496169Y33141783D01*
X8368217Y33013831D01*
X8368215Y33013828D01*
X8323067Y32941976D01*
X8270732Y32895685D01*
X8201679Y32885038D01*
X8137830Y32913413D01*
X8113029Y32945514D01*
X8111761Y32944717D01*
X8029833Y33075104D01*
X8011783Y33103830D01*
X7883830Y33231783D01*
X7778730Y33297822D01*
X7730612Y33328057D01*
X7559812Y33387822D01*
X7559806Y33387823D01*
X7380004Y33408081D01*
X7379996Y33408081D01*
X7200193Y33387823D01*
X7200187Y33387822D01*
X7029387Y33328057D01*
X6876169Y33231783D01*
X6748215Y33103829D01*
X6679154Y32993919D01*
X6626819Y32947628D01*
X6560277Y32936672D01*
X6516816Y32941569D01*
X6452402Y32968636D01*
X6412847Y33026231D01*
X6406700Y33064789D01*
X6406700Y34798268D01*
X6426385Y34865307D01*
X6443019Y34885949D01*
X6483511Y34926441D01*
X6573242Y35016172D01*
X6669515Y35169389D01*
X6729280Y35340187D01*
X6749540Y35520002D01*
X6747746Y35535923D01*
X6729281Y35699809D01*
X6729280Y35699815D01*
X6729280Y35699817D01*
X6669515Y35870615D01*
X6573242Y36023832D01*
X6445289Y36151785D01*
X6445283Y36151790D01*
X6293427Y36247208D01*
X6247136Y36299542D01*
X6235399Y36352197D01*
X6235399Y38214373D01*
X6254406Y38280345D01*
X6289002Y38335404D01*
X6348056Y38429387D01*
X6407821Y38600185D01*
X6408630Y38607366D01*
X6428081Y38779997D01*
X6428081Y38780004D01*
X6407822Y38959807D01*
X6407821Y38959813D01*
X6407821Y38959815D01*
X6348056Y39130613D01*
X6251783Y39283830D01*
X6123830Y39411783D01*
X6055282Y39454855D01*
X5970612Y39508057D01*
X5799812Y39567822D01*
X5799806Y39567823D01*
X5620004Y39588081D01*
X5619996Y39588081D01*
X5440193Y39567823D01*
X5440187Y39567822D01*
X5269387Y39508057D01*
X5116169Y39411783D01*
X4988217Y39283831D01*
X4988215Y39283828D01*
X4888748Y39125530D01*
X4836413Y39079239D01*
X4767359Y39068592D01*
X4703511Y39096968D01*
X4696074Y39103822D01*
X4661402Y39138494D01*
X4661396Y39138499D01*
X4475842Y39268425D01*
X4432217Y39323002D01*
X4425023Y39392500D01*
X4456546Y39454855D01*
X4475842Y39471575D01*
X4527942Y39508056D01*
X4661401Y39601505D01*
X4828495Y39768599D01*
X4964035Y39962170D01*
X5063903Y40176337D01*
X5125063Y40404592D01*
X5145659Y40640000D01*
X5125063Y40875408D01*
X5078626Y41048715D01*
X5063905Y41103656D01*
X5063904Y41103657D01*
X5063903Y41103663D01*
X4964035Y41317829D01*
X4920119Y41380549D01*
X4828494Y41511403D01*
X4661402Y41678494D01*
X4661401Y41678495D01*
X4475842Y41808425D01*
X4475841Y41808426D01*
X4432216Y41863003D01*
X4425024Y41932502D01*
X4456546Y41994856D01*
X4475836Y42011572D01*
X4661401Y42141505D01*
X4828495Y42308599D01*
X4964035Y42502170D01*
X5063903Y42716337D01*
X5125063Y42944592D01*
X5145659Y43180000D01*
X5125063Y43415408D01*
X5078626Y43588715D01*
X5063905Y43643656D01*
X5063904Y43643657D01*
X5063903Y43643663D01*
X4964035Y43857829D01*
X4942625Y43888407D01*
X4828494Y44051403D01*
X4661402Y44218494D01*
X4661396Y44218499D01*
X4475842Y44348425D01*
X4432217Y44403002D01*
X4425023Y44472500D01*
X4456546Y44534855D01*
X4475842Y44551575D01*
X4606327Y44642942D01*
X4661401Y44681505D01*
X4828495Y44848599D01*
X4964035Y45042170D01*
X5063903Y45256337D01*
X5125063Y45484592D01*
X5145659Y45720000D01*
X5125063Y45955408D01*
X5066538Y46173830D01*
X5063905Y46183656D01*
X5063904Y46183657D01*
X5063903Y46183663D01*
X4964035Y46397829D01*
X4963876Y46398057D01*
X4828494Y46591403D01*
X4661402Y46758494D01*
X4661396Y46758499D01*
X4475842Y46888425D01*
X4432217Y46943002D01*
X4425023Y47012500D01*
X4456546Y47074855D01*
X4475842Y47091575D01*
X4606327Y47182942D01*
X4661401Y47221505D01*
X4828495Y47388599D01*
X4964035Y47582170D01*
X5063903Y47796337D01*
X5125063Y48024592D01*
X5145659Y48260000D01*
X5125063Y48495408D01*
X5063903Y48723663D01*
X4964035Y48937829D01*
X4828495Y49131401D01*
X4828494Y49131403D01*
X4661402Y49298494D01*
X4661396Y49298499D01*
X4475842Y49428425D01*
X4432217Y49483002D01*
X4425023Y49552500D01*
X4456546Y49614855D01*
X4475842Y49631575D01*
X4523398Y49664874D01*
X4661401Y49761505D01*
X4828495Y49928599D01*
X4964035Y50122170D01*
X5063903Y50336337D01*
X5125063Y50564592D01*
X5145659Y50800000D01*
X5125063Y51035408D01*
X5068042Y51248217D01*
X5063905Y51263656D01*
X5063904Y51263657D01*
X5063903Y51263663D01*
X4964035Y51477829D01*
X4963875Y51478057D01*
X4828496Y51671400D01*
X4792171Y51707725D01*
X4706567Y51793329D01*
X4673084Y51854649D01*
X4678068Y51924341D01*
X4719939Y51980275D01*
X4750915Y51997190D01*
X4882331Y52046204D01*
X4997546Y52132454D01*
X5083796Y52247669D01*
X5134091Y52382517D01*
X5140500Y52442127D01*
X5140500Y52639300D01*
X5160185Y52706339D01*
X5212989Y52752094D01*
X5264500Y52763300D01*
X8849725Y52763300D01*
X8916764Y52743615D01*
G37*
%TD.AperFunction*%
M02*
