%TF.GenerationSoftware,KiCad,Pcbnew,7.0.5*%
%TF.CreationDate,2023-07-19T21:52:06+09:00*%
%TF.ProjectId,MEZ80SPI_NOEX,4d455a38-3053-4504-995f-4e4f45582e6b,2.0*%
%TF.SameCoordinates,PX6e3c370PY76b1be0*%
%TF.FileFunction,Soldermask,Top*%
%TF.FilePolarity,Negative*%
%FSLAX46Y46*%
G04 Gerber Fmt 4.6, Leading zero omitted, Abs format (unit mm)*
G04 Created by KiCad (PCBNEW 7.0.5) date 2023-07-19 21:52:06*
%MOMM*%
%LPD*%
G01*
G04 APERTURE LIST*
G04 Aperture macros list*
%AMRoundRect*
0 Rectangle with rounded corners*
0 $1 Rounding radius*
0 $2 $3 $4 $5 $6 $7 $8 $9 X,Y pos of 4 corners*
0 Add a 4 corners polygon primitive as box body*
4,1,4,$2,$3,$4,$5,$6,$7,$8,$9,$2,$3,0*
0 Add four circle primitives for the rounded corners*
1,1,$1+$1,$2,$3*
1,1,$1+$1,$4,$5*
1,1,$1+$1,$6,$7*
1,1,$1+$1,$8,$9*
0 Add four rect primitives between the rounded corners*
20,1,$1+$1,$2,$3,$4,$5,0*
20,1,$1+$1,$4,$5,$6,$7,0*
20,1,$1+$1,$6,$7,$8,$9,0*
20,1,$1+$1,$8,$9,$2,$3,0*%
G04 Aperture macros list end*
%ADD10RoundRect,0.250000X0.350000X0.450000X-0.350000X0.450000X-0.350000X-0.450000X0.350000X-0.450000X0*%
%ADD11R,1.700000X1.700000*%
%ADD12O,1.700000X1.700000*%
%ADD13C,2.500000*%
%ADD14RoundRect,0.237500X-0.237500X0.300000X-0.237500X-0.300000X0.237500X-0.300000X0.237500X0.300000X0*%
%ADD15R,3.000000X0.550000*%
%ADD16R,0.550000X3.000000*%
%ADD17R,0.575000X3.000000*%
%ADD18R,3.000000X0.575000*%
%ADD19RoundRect,0.150000X-0.512500X-0.150000X0.512500X-0.150000X0.512500X0.150000X-0.512500X0.150000X0*%
%ADD20R,1.850000X0.700000*%
%ADD21RoundRect,0.237500X-0.300000X-0.237500X0.300000X-0.237500X0.300000X0.237500X-0.300000X0.237500X0*%
%ADD22RoundRect,0.250000X-0.350000X-0.450000X0.350000X-0.450000X0.350000X0.450000X-0.350000X0.450000X0*%
%ADD23C,1.200000*%
%ADD24C,0.605000*%
%ADD25C,0.900000*%
G04 APERTURE END LIST*
D10*
X13770000Y57950000D03*
X11770000Y57950000D03*
D11*
X20390000Y24950000D03*
D12*
X17850000Y24950000D03*
X15310000Y24950000D03*
X12770000Y24950000D03*
X10230000Y24950000D03*
X7690000Y24950000D03*
D13*
X4150000Y61890000D03*
D14*
X7970000Y29665000D03*
X7970000Y27940000D03*
D15*
X8247500Y14890000D03*
X8247500Y14090000D03*
X8247500Y13290000D03*
X8247500Y12490000D03*
X8247500Y11690000D03*
X8247500Y10890000D03*
X8247500Y10090000D03*
X8247500Y9290000D03*
X8247500Y8490000D03*
X8247500Y7690000D03*
X8247500Y6890000D03*
D16*
X10247500Y4890000D03*
X11047500Y4890000D03*
X11847500Y4890000D03*
X12647500Y4890000D03*
X13447500Y4890000D03*
X14247500Y4890000D03*
X15047500Y4890000D03*
D17*
X15860000Y4890000D03*
D16*
X16647500Y4890000D03*
X17447500Y4890000D03*
X18247500Y4890000D03*
D18*
X20247500Y6877500D03*
D15*
X20247500Y7690000D03*
X20247500Y8490000D03*
X20247500Y9290000D03*
X20247500Y10090000D03*
X20247500Y10890000D03*
X20247500Y11690000D03*
X20247500Y12490000D03*
X20247500Y13290000D03*
X20247500Y14090000D03*
X20247500Y14890000D03*
D17*
X18260000Y16890000D03*
D16*
X17447500Y16890000D03*
D17*
X16660000Y16890000D03*
X15860000Y16890000D03*
D16*
X15047500Y16890000D03*
X14247500Y16890000D03*
X13447500Y16890000D03*
X12647500Y16890000D03*
X11847500Y16890000D03*
X11047500Y16890000D03*
X10247500Y16890000D03*
D19*
X16375000Y30290000D03*
X16375000Y29340000D03*
X16375000Y28390000D03*
X18650000Y28390000D03*
X18650000Y30290000D03*
D13*
X23950000Y61890000D03*
D20*
X7330000Y53290000D03*
X7330000Y52020000D03*
X7330000Y50750000D03*
X7330000Y49480000D03*
X7330000Y48210000D03*
X7330000Y46940000D03*
X7330000Y45670000D03*
X7330000Y44400000D03*
X7330000Y43130000D03*
X7330000Y41860000D03*
X7330000Y40590000D03*
X7330000Y39320000D03*
X7330000Y38050000D03*
X7330000Y36780000D03*
X7330000Y35510000D03*
X7330000Y34240000D03*
X20630000Y34240000D03*
X20630000Y35510000D03*
X20630000Y36780000D03*
X20630000Y38050000D03*
X20630000Y39320000D03*
X20630000Y40590000D03*
X20630000Y41860000D03*
X20630000Y43130000D03*
X20630000Y44400000D03*
X20630000Y45670000D03*
X20630000Y46940000D03*
X20630000Y48210000D03*
X20630000Y49480000D03*
X20630000Y50750000D03*
X20630000Y52020000D03*
X20630000Y53290000D03*
D21*
X17965000Y55970000D03*
X19690000Y55970000D03*
D22*
X7250000Y57950000D03*
X9250000Y57950000D03*
D11*
X3790000Y53340000D03*
D12*
X3790000Y50800000D03*
X3790000Y48260000D03*
X3790000Y45720000D03*
X3790000Y43180000D03*
X3790000Y40640000D03*
X3790000Y38100000D03*
X3790000Y35560000D03*
X3790000Y33020000D03*
X3790000Y30480000D03*
X3790000Y27940000D03*
X3790000Y25400000D03*
X3790000Y22860000D03*
X3790000Y20320000D03*
X3790000Y17780000D03*
X3790000Y15240000D03*
X3790000Y12700000D03*
X3790000Y10160000D03*
X3790000Y7620000D03*
X3790000Y5080000D03*
D11*
X24110000Y53340000D03*
D12*
X24110000Y50800000D03*
X24110000Y48260000D03*
X24110000Y45720000D03*
X24110000Y43180000D03*
X24110000Y40640000D03*
X24110000Y38100000D03*
X24110000Y35560000D03*
X24110000Y33020000D03*
X24110000Y30480000D03*
X24110000Y27940000D03*
X24110000Y25400000D03*
X24110000Y22860000D03*
X24110000Y20320000D03*
X24110000Y17780000D03*
X24110000Y15240000D03*
X24110000Y12700000D03*
X24110000Y10160000D03*
X24110000Y7620000D03*
X24110000Y5080000D03*
D23*
X11700000Y10930000D03*
D24*
X11610000Y7100000D03*
D23*
X10229998Y55030000D03*
X10230000Y29680000D03*
D24*
X26000000Y20860000D03*
D23*
X16160000Y52930000D03*
D24*
X8160000Y33130000D03*
X18000000Y60000000D03*
X5000000Y59000000D03*
X27000000Y44000000D03*
X20000000Y19000000D03*
X7000000Y61000000D03*
X9060000Y52040000D03*
X5580000Y52630000D03*
X21000000Y61000000D03*
X20880000Y30840000D03*
D25*
X27000000Y11000000D03*
D24*
X1000000Y58000000D03*
X7000000Y55000000D03*
X26000000Y2000000D03*
X3000000Y1000000D03*
X21580000Y54920000D03*
X21000000Y2000000D03*
X22000000Y58000000D03*
X1000000Y53000000D03*
X1000000Y47000000D03*
X7870000Y26660000D03*
X27000000Y50000000D03*
X22230000Y40590000D03*
X27000000Y58000000D03*
D23*
X16000000Y58000000D03*
D24*
X9150000Y50750000D03*
X10920000Y14810000D03*
X11140000Y27550000D03*
X12960000Y22050000D03*
X12960006Y19710000D03*
X11220000Y49500000D03*
X17950000Y46361400D03*
X17493538Y14620706D03*
X18260000Y14621100D03*
X13170000Y46930000D03*
X18510000Y43708600D03*
X13170000Y43710000D03*
X13317500Y41160000D03*
X15300000Y12800000D03*
X15370000Y22090000D03*
X15870000Y41170000D03*
X12990000Y27430000D03*
X15870000Y45670000D03*
X17950000Y12720000D03*
X12611100Y44400000D03*
X12710000Y39130000D03*
X18024455Y11925545D03*
X15599300Y37177702D03*
X15320000Y43130000D03*
X17990000Y11140000D03*
X18940000Y42410000D03*
X18940000Y33075100D03*
X18000000Y10370000D03*
X17380000Y32575100D03*
X17381100Y40590000D03*
X15860000Y31890000D03*
X18010000Y9610000D03*
X15870000Y39320000D03*
X14838900Y20870000D03*
X5545545Y8535545D03*
X14778898Y37450000D03*
X15040000Y27750000D03*
X5640000Y7690000D03*
X14690000Y36170000D03*
X17830000Y19790000D03*
X5941459Y35520002D03*
X19830000Y31350000D03*
X5830000Y31340000D03*
X5489992Y25360026D03*
X19830000Y28390000D03*
X10360000Y10090000D03*
X10540000Y13290000D03*
X7380000Y32600000D03*
X12611100Y37360000D03*
X12611100Y35349700D03*
X9000000Y32510000D03*
X10670000Y14090000D03*
X12599996Y32550000D03*
X10470000Y12480000D03*
X4660000Y36790000D03*
X6490859Y32136412D03*
X5620000Y38780000D03*
X10900000Y11680000D03*
X2021100Y39180000D03*
X6080000Y9280000D03*
X14389997Y41860003D03*
X14390000Y50060000D03*
X14776288Y14778284D03*
X26350000Y41780000D03*
X26620000Y12900000D03*
X13450000Y14550000D03*
X9450000Y53350000D03*
X13849990Y44400000D03*
X13850000Y53350000D03*
X16770000Y47540000D03*
X16770000Y45670000D03*
X15978761Y14627503D03*
X16736136Y14621080D03*
X17390000Y46940000D03*
X12530000Y14570000D03*
X13230000Y48741100D03*
X26240000Y51880000D03*
X26240000Y22860000D03*
X11761098Y51568899D03*
X10990000Y19120000D03*
X13490000Y55930000D03*
X14180000Y2300000D03*
X14200000Y8470000D03*
X1610000Y2390000D03*
X17440000Y2290000D03*
X26080000Y17830000D03*
X26020000Y8740000D03*
X15560000Y2310000D03*
X20390000Y21370000D03*
X20390000Y29800000D03*
X2070000Y21500000D03*
X12684455Y29365545D03*
M02*
